<svg xmlns="http://www.w3.org/2000/svg" xmlns:xlink="http://www.w3.org/1999/xlink" version="1.1" x="0px" y="0px" viewBox="0 0 100 125" enable-background="new 0 0 100 100" xml:space="preserve"><path d="M85.218,22.754l-18.876-9.438c-0.932-0.463-2.033-0.417-2.918,0.132C62.539,13.995,62,14.96,62,16v7.472  C56.223,18.707,48.79,16,41,16C22.804,16,8,32.15,8,52s14.804,36,33,36c12.75,0,24.448-8.999,29.801-22.923  c0.454-1.185,0.114-2.528-0.85-3.354c-0.964-0.829-2.344-0.955-3.445-0.324c-14.81,8.503-20.32,8.807-25.518,8.331  c-6.938-0.627-12.135-7.853-11.977-13.652c0.152-5.591,5.019-6.936,9.07-7.078c6.779-0.29,12.396,7.627,12.445,7.702  c0.744,1.083,2.112,1.554,3.363,1.165C55.145,57.474,56,56.314,56,55v-9h23.73C86.495,46,92,40.495,92,33.729  C92,29.052,89.401,24.846,85.218,22.754z M74,34c-1.657,0-3-1.343-3-3c0-1.657,1.343-3,3-3s3,1.343,3,3C77,32.657,75.657,34,74,34z"/><text x="0" y="115" fill="#000000" font-size="5px" font-weight="bold" font-family="'Helvetica Neue', Helvetica, Arial-Unicode, Arial, Sans-serif">Created by Ayub Irawan</text><text x="0" y="120" fill="#000000" font-size="5px" font-weight="bold" font-family="'Helvetica Neue', Helvetica, Arial-Unicode, Arial, Sans-serif">from the Noun Project</text></svg>